<?xml version="1.0" encoding="utf-8"?>
<!-- Generator: Adobe Illustrator 16.0.4, SVG Export Plug-In . SVG Version: 6.00 Build 0)  -->
<!DOCTYPE svg PUBLIC "-//W3C//DTD SVG 1.1//EN" "http://www.w3.org/Graphics/SVG/1.1/DTD/svg11.dtd">
<svg version="1.1" id="Ebene_1"
	 xmlns="http://www.w3.org/2000/svg"  x="0px" y="0px" width="212px" height="212px"
	 viewBox="0 0 212 212" enable-background="new 0 0 212 212" xml:space="preserve">
<g>
	<g>
		<g>
			<path fill="#FFFFFF" d="M83.748,88.267c-0.424,0-0.848-0.162-1.171-0.485c-0.647-0.647-0.647-1.695,0-2.342l21.082-21.082
				c0.646-0.647,1.695-0.647,2.342,0c0.646,0.647,0.646,1.695,0,2.342L84.918,87.781C84.595,88.104,84.171,88.267,83.748,88.267z"/>
		</g>
		<g>
			<path fill="#FFFFFF" d="M77.894,117.545c-0.424,0-0.848-0.161-1.171-0.485c-0.647-0.646-0.647-1.694,0-2.342l56.214-56.215
				c0.647-0.647,1.695-0.647,2.342,0c0.647,0.647,0.647,1.695,0,2.342L79.065,117.06C78.741,117.384,78.318,117.545,77.894,117.545z
				"/>
		</g>
	</g>
	<g>
		<path fill="#FFFFFF" d="M106,177.668c-31.71,0-57.506-36.608-57.506-81.605c0-44.998,25.796-81.606,57.506-81.606
			c31.711,0,57.51,36.608,57.51,81.606C163.51,141.06,137.711,177.668,106,177.668z M106,24.394
			c-26.23,0-47.569,32.15-47.569,71.668c0,39.519,21.339,71.668,47.569,71.668c26.231,0,47.572-32.149,47.572-71.668
			C153.572,56.544,132.231,24.394,106,24.394z"/>
	</g>
	<g>
		<path fill="#FFFFFF" d="M177.219,196.715H34.781c-1.372,0-2.484-1.112-2.484-2.484c0-1.371,1.113-2.484,2.484-2.484h142.438
			c1.371,0,2.484,1.113,2.484,2.484C179.703,195.603,178.59,196.715,177.219,196.715z"/>
	</g>
</g>
</svg>
